<svg xmlns="http://www.w3.org/2000/svg" xmlns:xlink="http://www.w3.org/1999/xlink" width="10" height="10" viewBox="0 0 10 10"><defs><path id="5b5ua" d="M628 330.047c0 .21-.084.421-.236.573l-1.144 1.144a.816.816 0 0 1-1.145 0L623 329.29l-2.475 2.474a.816.816 0 0 1-1.145 0l-1.144-1.144a.816.816 0 0 1 0-1.145L620.71 327l-2.474-2.475a.816.816 0 0 1 0-1.145l1.144-1.144a.816.816 0 0 1 1.145 0L623 324.71l2.475-2.474a.816.816 0 0 1 1.145 0l1.144 1.144a.816.816 0 0 1 0 1.145L625.29 327l2.474 2.475a.816.816 0 0 1 .236.572z"/></defs><g><g transform="translate(-618 -322)"><use fill="#6a6157" xlink:href="#5b5ua"/></g></g></svg>