<svg xmlns="http://www.w3.org/2000/svg" xmlns:xlink="http://www.w3.org/1999/xlink" width="20" height="17" viewBox="0 0 20 17"><defs><path id="iwhha" d="M417.9 320.889c-.298-1.084-1.367-1.889-2.64-1.889-1.273 0-2.342.805-2.641 1.889H410v1.222h2.619c.299 1.084 1.368 1.889 2.641 1.889s2.342-.805 2.64-1.889H430v-1.222h-12.1zm-2.645 1.898c-.766 0-1.388-.575-1.388-1.282 0-.707.622-1.282 1.388-1.282.766 0 1.388.575 1.388 1.282 0 .707-.622 1.282-1.388 1.282z"/><path id="iwhhb" d="M425.707 325c-1.274 0-2.342.805-2.641 1.889H410v1.222h13.066c.299 1.084 1.368 1.889 2.64 1.889 1.274 0 2.343-.805 2.641-1.889H430v-1.222h-1.653c-.298-1.084-1.367-1.889-2.64-1.889zm0 3.778c-.769 0-1.394-.574-1.394-1.278 0-.704.625-1.278 1.394-1.278.768 0 1.393.574 1.393 1.278 0 .704-.625 1.278-1.393 1.278z"/><path id="iwhhc" d="M418.622 331c-1.273 0-2.342.805-2.64 1.889H410v1.222h5.981c.299 1.084 1.368 1.889 2.641 1.889s2.342-.805 2.64-1.889H430v-1.222h-8.737c-.299-1.084-1.368-1.889-2.64-1.889zm0 3.788c-.768 0-1.393-.576-1.393-1.283s.625-1.283 1.393-1.283 1.393.576 1.393 1.283-.625 1.283-1.393 1.283z"/></defs><g><g transform="translate(-410 -319)"><use fill="#e75300" xlink:href="#iwhha"/></g><g transform="translate(-410 -319)"><use fill="#e75300" xlink:href="#iwhhb"/></g><g transform="translate(-410 -319)"><use fill="#e75300" xlink:href="#iwhhc"/></g></g></svg>