<svg id="SVGDoc" width="109" height="32" xmlns="http://www.w3.org/2000/svg" version="1.1" xmlns:xlink="http://www.w3.org/1999/xlink" xmlns:avocode="https://avocode.com/" viewBox="0 0 109 32"><defs><path d="M458.46369,88.01029h-5.97222l-0.01134,-0.0072v0.0072h-0.00412l0.00412,0.00309v5.9753l0.00825,-0.00515l-0.0165,0.01647h6.00625l-0.00516,-0.01029v-5.98971z" id="Path-0"/><path d="M479.81868,63v0.00206h-0.00401l0.00401,0.00308v5.99844h4.76117v-0.00617l0.00401,0.00617h-0.00401v6.0838l0.00401,12.9039l0.00201,0.00719l-0.0191,-0.00411h-5.06678l0.00704,0.00411v5.99639l0.01609,-0.01131h15.95233l0.02814,0.01645h0.01307v-6.00564h-0.01307h-5.06075v-24.97174l0.02111,-0.02056h-10.62718l-0.00402,-0.00206z" id="Path-1"/><path d="M461.79993,63v0.00206h-0.00401l0.00401,0.00308v5.99844h4.76117v-0.00617l0.00401,0.00617h-0.00401v6.0838l0.00401,12.9039l0.00101,0.00719l-0.0191,-0.00411h-5.06578l0.00503,0.00411v5.99639l0.0181,-0.01131h15.95233l0.02614,0.01645h0.01508v-6.00564h-0.01307h-5.06075v-24.97174l0.0191,-0.02056h-10.62718l-0.00201,-0.00206z" id="Path-2"/><path d="M430.4567,81.00055c0,0 3.18067,-0.96195 6.39665,-1.0617c1.33461,-0.04276 2.67325,0.06311 3.79602,0.44789c0.54373,0.1873 1.03702,0.43873 1.45364,0.77159c0.44891,0.35933 0.80601,0.81028 1.04206,1.3732c0.19469,0.46927 0.30667,1.01386 0.31374,1.646c0.00302,0.03156 0.00605,0.05701 0.00605,0.08754c0,0.67286 -0.09382,1.24596 -0.26127,1.73864c-0.21487,0.62908 -0.55382,1.12278 -0.98759,1.50654c-0.3672,0.32167 -0.79996,0.567 -1.28215,0.7431c-0.6779,0.24939 -1.45264,0.36544 -2.27176,0.38987c-1.52123,0.04173 -3.19378,-0.24227 -4.69282,-0.61484c-2.49874,-0.61585 -4.5062,-1.476 -4.5062,-1.476l-0.01514,0.40208l0.01514,6.37839c0,0 1.58781,0.5446 3.90295,1.01285c1.53132,0.30843 3.37737,0.58226 5.29607,0.64028c0.29356,0.01018 0.58912,0.01628 0.8857,0.01323v-0.00407c1.69071,0 3.24826,-0.30436 4.62221,-0.85405c1.13689,-0.45298 2.14768,-1.06883 3.01119,-1.82109c1.15505,-1.00572 2.04278,-2.25269 2.60365,-3.65846c0.44487,-1.11362 0.68496,-2.32904 0.68496,-3.60349c0,-0.33592 -0.01614,-0.66268 -0.03833,-0.98333c-0.10391,-1.51774 -0.45093,-2.8716 -1.00979,-4.04121c-0.59417,-1.23781 -1.42036,-2.26898 -2.44224,-3.07518c-1.01886,-0.80214 -2.23141,-1.38032 -3.59528,-1.71319c-1.09653,-0.26466 -2.29092,-0.36951 -3.56299,-0.30843c-0.09987,0.00407 -0.19974,0.00814 -0.30062,0.01527c-2.88308,0.20155 -3.2311,0.19951 -3.25935,0.19239l0.00302,-0.00509v-5.24136h12.91234v-5.89792h-0.01514l-0.01917,0.01934h-18.66436h-0.00807v16.96187z" id="Path-3"/><path d="M530.35338,88.56803c0,2.33713 -1.89741,4.23148 -4.23705,4.23148h-18.14733c-2.33655,0 -4.23191,-1.89435 -4.23191,-4.23148h-0.01131v-18.12785h0.01337c0,-2.33404 1.8933,-4.22942 4.22985,-4.22942v-0.01027h18.14733v0.01027c2.34169,0 4.23705,1.89538 4.23705,4.22942h0.00206v18.12785zM501.52292,95h31.03229v-31h-31.03229z" id="Path-4"/><path d="M525.97103,84.74397c0,1.48117 -1.20039,2.67798 -2.68029,2.67798v0.00625h-11.49188v-0.00625c-1.48198,0 -2.68133,-1.19681 -2.68133,-2.67798h-0.01669v-11.47545h0.01669c0,-1.47805 1.19935,-2.67798 2.68133,-2.67798v-0.01771h11.49188v0.01771c1.4799,0 2.68029,1.19993 2.68029,2.67798h0.00626v11.47545zM507.52917,89h20.02083v-20h-20.02083z" id="Path-5"/><path d="M535.74347,64.32029v-0.45085h0.33108c0.21983,0 0.27995,0.06812 0.27995,0.19988c0,0.13535 -0.06012,0.2438 -0.31942,0.25097zM535.97586,64.59636c0.09511,0.00717 0.18753,0 0.25483,0.0708c0.07985,0.08426 0.07985,0.22409 0.09959,0.37556c0.01256,0.10398 0.04037,0.21512 0.06011,0.31551h0.35173c-0.06011,-0.15954 -0.07985,-0.34329 -0.10408,-0.5109c-0.02782,-0.19182 -0.05563,-0.29938 -0.29968,-0.34688v-0.00807c0.23507,-0.0484 0.3589,-0.20795 0.3589,-0.41141c0,-0.39887 -0.33468,-0.48581 -0.6586,-0.48581h-0.57065v1.76307h0.27546v-0.76187zM537.30666,64.50097c0,0.68936 -0.55314,1.24553 -1.23873,1.24553c-0.68917,0 -1.24683,-0.55617 -1.24683,-1.24553c0,-0.68036 0.55766,-1.23744 1.24683,-1.23744c0.68558,0 1.23873,0.55708 1.23873,1.23744zM534.55729,64.49597c0,0.83448 0.67115,1.50403 1.5056,1.50403c0.83086,0 1.49753,-0.66955 1.49753,-1.50403c0,-0.82552 -0.66666,-1.49597 -1.49753,-1.49597c-0.83445,0 -1.5056,0.67045 -1.5056,1.49597z" id="Path-6"/><path d="M522.54479,78.28234h-4.28772v-4.28234h-1.4339v4.28234h-4.28879v1.43317h4.28879v4.28449h1.4339v-4.28449h4.28772z" id="Path-7"/></defs><desc>Generated with Avocode.</desc><g transform="matrix(1,0,0,1,-429,-63)"><g><title>Logo 511</title><g><title>Fill 1</title><use xlink:href="#Path-0" fill="#ffffff" fill-opacity="1"/></g><g><title>Fill 2</title><use xlink:href="#Path-1" fill="#ffffff" fill-opacity="1"/></g><g><title>Fill 3</title><use xlink:href="#Path-2" fill="#ffffff" fill-opacity="1"/></g><g><title>Fill 4</title><use xlink:href="#Path-3" fill="#ffffff" fill-opacity="1"/></g><g><title>Fill 8</title><use xlink:href="#Path-4" fill="#e75300" fill-opacity="1"/></g><g><title>Fill 10</title><use xlink:href="#Path-5" fill="#e75300" fill-opacity="1"/></g><g><title>Fill 11</title><use xlink:href="#Path-6" fill="#e75300" fill-opacity="1"/></g><g><title>Fill 6</title><use xlink:href="#Path-7" fill="#e75300" fill-opacity="1"/></g></g><g><title>Fill 6</title><use xlink:href="#Path-7" fill="#e75300" fill-opacity="1"/></g><g><title>Fill 11</title><use xlink:href="#Path-6" fill="#e75300" fill-opacity="1"/></g><g><title>Fill 10</title><use xlink:href="#Path-5" fill="#e75300" fill-opacity="1"/></g><g><title>Fill 8</title><use xlink:href="#Path-4" fill="#e75300" fill-opacity="1"/></g><g><title>Fill 4</title><use xlink:href="#Path-3" fill="#ffffff" fill-opacity="1"/></g><g><title>Fill 3</title><use xlink:href="#Path-2" fill="#ffffff" fill-opacity="1"/></g><g><title>Fill 2</title><use xlink:href="#Path-1" fill="#ffffff" fill-opacity="1"/></g><g><title>Fill 1</title><use xlink:href="#Path-0" fill="#ffffff" fill-opacity="1"/></g><g><title>Logo 511</title><g><title>Fill 1</title><use xlink:href="#Path-0" fill="#ffffff" fill-opacity="1"/></g><g><title>Fill 2</title><use xlink:href="#Path-1" fill="#ffffff" fill-opacity="1"/></g><g><title>Fill 3</title><use xlink:href="#Path-2" fill="#ffffff" fill-opacity="1"/></g><g><title>Fill 4</title><use xlink:href="#Path-3" fill="#ffffff" fill-opacity="1"/></g><g><title>Fill 8</title><use xlink:href="#Path-4" fill="#e75300" fill-opacity="1"/></g><g><title>Fill 10</title><use xlink:href="#Path-5" fill="#e75300" fill-opacity="1"/></g><g><title>Fill 11</title><use xlink:href="#Path-6" fill="#e75300" fill-opacity="1"/></g><g><title>Fill 6</title><use xlink:href="#Path-7" fill="#e75300" fill-opacity="1"/></g></g><g><title>Fill 6</title><use xlink:href="#Path-7" fill="#e75300" fill-opacity="1"/></g><g><title>Fill 11</title><use xlink:href="#Path-6" fill="#e75300" fill-opacity="1"/></g><g><title>Fill 10</title><use xlink:href="#Path-5" fill="#e75300" fill-opacity="1"/></g><g><title>Fill 8</title><use xlink:href="#Path-4" fill="#e75300" fill-opacity="1"/></g><g><title>Fill 4</title><use xlink:href="#Path-3" fill="#ffffff" fill-opacity="1"/></g><g><title>Fill 3</title><use xlink:href="#Path-2" fill="#ffffff" fill-opacity="1"/></g><g><title>Fill 2</title><use xlink:href="#Path-1" fill="#ffffff" fill-opacity="1"/></g><g><title>Fill 1</title><use xlink:href="#Path-0" fill="#ffffff" fill-opacity="1"/></g></g></svg>